# xmcd
#
# Track frame offsets: 
#        150
#        24733
#        54770
#        85539
#        105077
#        117733
#        143622
#
# Disc length: 2394 seconds
#
# Revision: 2
# Processed by: cddbd v1.5.2PL0 Copyright (c) Steve Scherf et al.
# Submitted via: ExactAudioCopyFreeDBPlugin 1.0
#
DISCID=4a095807
DTITLE=Jean-Michel Jarre - Oxygène 3
DYEAR=2016
DGENRE=Electronic
TTITLE0=Oxygène (Part 14)
TTITLE1=Oxygène (Part 15)
TTITLE2=Oxygène (Part 16)
TTITLE3=Oxygène (Part 17)
TTITLE4=Oxygène (Part 18)
TTITLE5=Oxygène (Part 19)
TTITLE6=Oxygène (Part 20)
EXTD=
EXTT0=
EXTT1=
EXTT2=
EXTT3=
EXTT4=
EXTT5=
EXTT6=
PLAYORDER=
